PathFileType	4	(X/Y/Z)	./resultDataOpenSim/trcMotMarkerGrf/sub10/qtm-01-02.trc
DataRate	CameraRate	NumFrames	NumMarkers	Units	OrigDataRate	OrigDataStartFrame	OrigNumFrames
250.000000	250.000000	9	24	m	250.000000	57	454
Frame#	Time	L.Toe.Tip			R.Toe.Tip			L.Ankle.Lat			R.Ankle.Lat			L.Ankle.Med			R.Ankle.Med			L.Heel			R.Heel			L.Knee.Lat			R.Knee.Lat			L.Knee.Med			R.Knee.Med			L.Thigh.Upper			R.Thigh.Upper			L.ASIS			R.ASIS			V.Sacral			L.Acromium			R.Acromium			C7			L.Elbow			R.Elbow			L.Wrist.Lat			R.Wrist.Lat
		X1	Y1	Z1	X2	Y2	Z2	X3	Y3	Z3	X4	Y4	Z4	X5	Y5	Z5	X6	Y6	Z6	X7	Y7	Z7	X8	Y8	Z8	X9	Y9	Z9	X10	Y10	Z10	X11	Y11	Z11	X12	Y12	Z12	X13	Y13	Z13	X14	Y14	Z14	X15	Y15	Z15	X16	Y16	Z16	X17	Y17	Z17	X18	Y18	Z18	X19	Y19	Z19	X20	Y20	Z20	X21	Y21	Z21	X22	Y22	Z22	X23	Y23	Z23	X24	Y24	Z24

57	0.224	-1.5490175	0.045171121	-0.058436209	-0.74968741	0.041312763	0.050433643	-1.5922568	0.17424771	-0.073731338	-0.88602147	0.052755083	0.093004201	-1.5526359	0.16978229	-0.00067923192	-0.87500941	0.081652375	0.009754237	-1.6376675	0.20618573	-0.015247481	-0.9401613	0.027904356	0.046893959	-1.2987977	0.42674786	-0.1263442	-0.9010471	0.4488051	0.13187133	-1.2767317	0.38360092	-0.015551443	-0.90415698	0.4637226	0.0057446915	-1.1600812	0.78320226	-0.16940017	-1.0457409	0.83463385	0.20446005	-1.0634929	0.87572801	-0.12543184	-0.99895548	0.90689123	0.11052762	-1.2247401	0.92563132	0.042438891	-1.053242	1.3691689	-0.1450548	-1.069311	1.3616866	0.17808723	-1.1416288	1.4023301	0.01215917	-1.1350219	1.0242889	-0.1944728	-1.267284	1.0835536	0.20706597	-0.91069317	0.91461702	-0.21632722	-1.2818689	0.86054473	0.2974212
58	0.228	-1.5459728	0.046821227	-0.058454735	-0.74938478	0.041046185	0.050351862	-1.5834034	0.17788492	-0.07428735	-0.88562572	0.052695869	0.093091382	-1.5438314	0.17219879	-0.0013489647	-0.87479171	0.081519506	0.0097655479	-1.6274652	0.21184902	-0.015458467	-0.94004428	0.027970015	0.046950611	-1.2865823	0.42542054	-0.12763421	-0.89689122	0.4485027	0.13195443	-1.2636081	0.38123771	-0.017300572	-0.89962934	0.46403625	0.0061435439	-1.1516885	0.78276048	-0.16878115	-1.0386369	0.83651189	0.20479009	-1.0557667	0.87621783	-0.12426575	-0.99179112	0.90822909	0.11071844	-1.217495	0.9267429	0.042225153	-1.0469095	1.37044	-0.14436651	-1.0629847	1.36283	0.17865617	-1.1352284	1.4032224	0.012626307	-1.1291524	1.0258496	-0.19364934	-1.2592704	1.0839079	0.20759912	-0.90518965	0.91505149	-0.21565366	-1.2734462	0.86077065	0.29770795
59	0.232	-1.542656	0.04862468	-0.058497492	-0.74916761	0.040836092	0.050258717	-1.5741826	0.18156715	-0.074884354	-0.88531533	0.052621189	0.093136624	-1.5346489	0.17462779	-0.0018961522	-0.8746416	0.08140102	0.0097853827	-1.6166193	0.21755142	-0.015635454	-0.93995103	0.028020567	0.047002903	-1.2741706	0.42405302	-0.12895006	-0.89285672	0.44820621	0.13219029	-1.2498561	0.37885605	-0.019147877	-0.8953949	0.46418468	0.0065279809	-1.1432995	0.78233405	-0.16814365	-1.0314788	0.83831773	0.20518935	-1.0480885	0.8767729	-0.12309625	-0.98485078	0.90965521	0.11101315	-1.2103631	0.92784552	0.042028331	-1.0406129	1.3717212	-0.14370136	-1.0566254	1.3640035	0.17921277	-1.1288882	1.4041191	0.013091299	-1.1233354	1.0274152	-0.19288975	-1.2512174	1.0842317	0.20812386	-0.89995318	0.91542979	-0.21506646	-1.2648864	0.86094388	0.2980112
60	0.236	-1.5389659	0.050533409	-0.058525259	-0.74901874	0.04065274	0.050280094	-1.5643817	0.1852465	-0.075518735	-0.88508394	0.052537562	0.093188016	-1.5250666	0.17706951	-0.0023379843	-0.87449746	0.081298569	0.0098370582	-1.6050903	0.22326241	-0.015850785	-0.93987622	0.02805957	0.047044507	-1.2616511	0.42266524	-0.13026417	-0.88892893	0.44792392	0.13255262	-1.2354997	0.37654327	-0.021108369	-0.89144138	0.46417118	0.0068830904	-1.1349155	0.78194927	-0.16752173	-1.0243379	0.84003007	0.20565229	-1.0404192	0.87743048	-0.12191872	-0.97811331	0.9111202	0.11137501	-1.2033736	0.92894767	0.041835439	-1.0343613	1.3730071	-0.1430688	-1.0501534	1.3652015	0.17976786	-1.1225938	1.40504	0.013561693	-1.1175452	1.0289788	-0.19214233	-1.2431214	1.0845356	0.20865049	-0.89489748	0.91574692	-0.21454359	-1.2561782	0.86108675	0.29832513
61	0.24	-1.5347926	0.052534061	-0.058491186	-0.74892094	0.04048653	0.050427162	-1.5538162	0.18887754	-0.076210341	-0.88494077	0.052433779	0.093261567	-1.5151669	0.17954967	-0.0027123877	-0.87433231	0.081212248	0.0099384088	-1.5928559	0.22893704	-0.01622437	-0.93982392	0.028087238	0.047089425	-1.2490922	0.42127899	-0.13154639	-0.88514833	0.44764864	0.13297934	-1.2209609	0.37438425	-0.023060285	-0.88763434	0.4640329	0.0072258518	-1.126544	0.78163058	-0.16693626	-1.0173863	0.84163554	0.20614791	-1.0327519	0.87820212	-0.12074746	-0.97152016	0.91258684	0.11178855	-1.1965187	0.9300598	0.041651489	-1.0281491	1.374293	-0.14247523	-1.0435227	1.3664141	0.18033745	-1.1163342	1.4059999	0.014035653	-1.1117775	1.0305421	-0.19139656	-1.2349852	1.0848226	0.20918572	-0.88989817	0.91599579	-0.21405421	-1.2473146	0.86120986	0.29863658
62	0.244	-1.5300664	0.054657267	-0.058332758	-0.7488674	0.040341606	0.050630628	-1.5425735	0.19239478	-0.076951543	-0.88493214	0.052301395	0.093321595	-1.505049	0.18210729	-0.0030567436	-0.87416199	0.081143826	0.010089182	-1.5800161	0.23446765	-0.01684808	-0.93979952	0.028103665	0.047155658	-1.2365086	0.41992743	-0.13278291	-0.88157407	0.4473785	0.1333968	-1.2066672	0.37246271	-0.024837703	-0.88383262	0.46381969	0.0075884886	-1.1181954	0.78140148	-0.16639042	-1.0107463	0.8431228	0.20664032	-1.0251385	0.87905555	-0.1196306	-0.96493762	0.91403188	0.11224277	-1.1897722	0.93118643	0.041491877	-1.0219702	1.3755786	-0.14192618	-1.0367767	1.3676344	0.1809106	-1.1101046	1.4069998	0.014498605	-1.106035	1.0321072	-0.19065815	-1.2268157	1.0850835	0.20973284	-0.88491178	0.91617498	-0.21359348	-1.2383006	0.86130387	0.2989298
63	0.248	-1.5247708	0.056954545	-0.057995134	-0.748858	0.040224496	0.050816351	-1.5310301	0.19572709	-0.077677344	-0.88511911	0.052148597	0.093309252	-1.494753	0.18475995	-0.0033930028	-0.87402668	0.081098356	0.010271804	-1.5668514	0.23968937	-0.017707045	-0.93980271	0.028109787	0.04724962	-1.2238851	0.41864816	-0.13397215	-0.87822184	0.44711684	0.1337557	-1.1927896	0.37084066	-0.026316658	-0.8800871	0.46355088	0.0079865906	-1.1098773	0.78127933	-0.16586987	-1.0043971	0.84449571	0.20712463	-1.0176539	0.87994608	-0.11862944	-0.95814092	0.91542267	0.11269777	-1.1831089	0.9323242	0.041371563	-1.0158244	1.3768645	-0.14142075	-1.0300412	1.3688596	0.18145012	-1.1039022	1.4080341	0.014940935	-1.1003148	1.0336728	-0.18993048	-1.2186178	1.0853073	0.21029492	-0.87995757	0.91628844	-0.21316866	-1.2291481	0.86135049	0.29919898
64	0.252	-1.5188183	0.059473858	-0.057499551	-0.74888708	0.040134944	0.050956001	-1.5195329	0.1988521	-0.078329901	-0.88548757	0.051995762	0.093215567	-1.4842575	0.18747159	-0.0037274421	-0.87395452	0.08108061	0.010464285	-1.5537143	0.24444597	-0.018670775	-0.93982589	0.028108442	0.047362413	-1.2111997	0.41747005	-0.13511915	-0.87504068	0.44687613	0.1340666	-1.1793207	0.36954917	-0.027442851	-0.87661649	0.46321286	0.0084042242	-1.1015932	0.78127366	-0.16535805	-0.99824439	0.84577148	0.20761797	-1.0103409	0.88085929	-0.11778027	-0.95092035	0.91670868	0.11306695	-1.1765123	0.93346325	0.041297461	-1.0097049	1.3781538	-0.14095262	-1.0234141	1.3700879	0.18192951	-1.0977201	1.4091045	0.015374104	-1.0946072	1.0352348	-0.18921009	-1.2103933	1.0854943	0.21087766	-0.8750639	0.91633939	-0.21278259	-1.2198637	0.86133777	0.29945257
65	0.256	-1.5118057	0.062271975	-0.05704094	-0.74893723	0.040065642	0.051064952	-1.5081489	0.20182189	-0.078912347	-0.88590535	0.051864067	0.093114472	-1.4735151	0.19016746	-0.0040585912	-0.8739361	0.081089198	0.010652949	-1.540888	0.24865032	-0.019566055	-0.93985948	0.028103644	0.047475846	-1.1984303	0.41640882	-0.13622969	-0.87193915	0.44669409	0.13439774	-1.1661344	0.36861106	-0.028257767	-0.87352676	0.46280741	0.008821053	-1.093341	0.78139046	-0.16485326	-0.99221041	0.84695607	0.20812545	-1.0031964	0.88181483	-0.11708687	-0.94325064	0.91785532	0.11326519	-1.1699728	0.93459191	0.041263468	-1.0035998	1.3794538	-0.14052858	-1.0168874	1.3713201	0.18235527	-1.0915472	1.4102207	0.015818174	-1.0889042	1.0367912	-0.18848948	-1.2021452	1.0856568	0.21148702	-0.87024482	0.91632931	-0.21243767	-1.2104419	0.86127031	0.29969972
